#N canvas -2 24 1009 703 12;
#X obj 247 189 hradio 30 1 0 16 empty empty empty 8 -8 0 8 -159808
-232576 -258699 0;
#X obj 247 222 tgl 30 0 empty empty empty 20 8 0 8 -203904 -258699
-1 0 1;
#X obj 277 222 tgl 30 0 empty empty empty 20 8 0 8 -203904 -258699
-1 0 1;
#X obj 307 222 tgl 30 0 empty empty empty 20 8 0 8 -203904 -258699
-1 0 1;
#X obj 337 222 tgl 30 0 empty empty empty 20 8 0 8 -203904 -258699
-1 0 1;
#X obj 367 222 tgl 30 0 empty empty empty 20 8 0 8 -203904 -258699
-1 0 1;
#X obj 397 222 tgl 30 0 empty empty empty 20 8 0 8 -203904 -258699
-1 0 1;
#X obj 427 222 tgl 30 0 empty empty empty 20 8 0 8 -203904 -258699
-1 0 1;
#X obj 457 222 tgl 30 0 empty empty empty 20 8 0 8 -203904 -258699
-1 0 1;
#X obj 487 222 tgl 30 0 empty empty empty 20 8 0 8 -203904 -258699
-1 0 1;
#X obj 517 222 tgl 30 0 empty empty empty 20 8 0 8 -203904 -258699
-1 0 1;
#X obj 547 222 tgl 30 0 empty empty empty 20 8 0 8 -203904 -258699
-1 0 1;
#X obj 577 222 tgl 30 0 empty empty empty 20 8 0 8 -203904 -258699
-1 0 1;
#X obj 607 222 tgl 30 0 empty empty empty 20 8 0 8 -203904 -258699
-1 0 1;
#X obj 637 222 tgl 30 0 empty empty empty 20 8 0 8 -203904 -258699
-1 0 1;
#X obj 667 222 tgl 30 0 empty empty empty 20 8 0 8 -203904 -258699
-1 0 1;
#X obj 697 222 tgl 30 0 empty empty empty 20 8 0 8 -203904 -258699
-1 0 1;
#X obj 247 163 r beat;
#X obj 33 366 s init;
#X obj 247 87 hradio 30 1 0 10 empty empty empty 8 -8 0 8 -232576 -159808
-1 0;
#X obj 51 280 s bar;
#N canvas 363 191 624 424 clock 0;
#X obj 100 192 int;
#X obj 155 176 + 1;
#X floatatom 191 235 0 0 0 0 - - -;
#X obj 74 150 metro 120;
#X floatatom 176 83 0 0 0 0 - - -;
#X obj 191 207 mod 16;
#X obj 190 264 s beat;
#X obj 39 26 inlet;
#X obj 344 24 inlet;
#X obj 316 182 int;
#X obj 401 23 inlet;
#X obj 163 25 inlet;
#X obj 230 24 inlet;
#X msg 233 83 0;
#X obj 217 354 outlet;
#X obj 492 288 int;
#X obj 535 268 + 1;
#X obj 329 323 int;
#X obj 372 303 - 1;
#X obj 372 336 moses 0;
#X obj 454 24 inlet;
#X obj 508 23 inlet;
#X obj 131 350 spigot;
#X msg 498 216 bang;
#X text 535 211 next bar;
#X text 406 303 last bar;
#X obj 69 289 select 15;
#X connect 0 0 1 0;
#X connect 1 0 5 0;
#X connect 2 0 0 1;
#X connect 2 0 6 0;
#X connect 2 0 26 0;
#X connect 3 0 0 0;
#X connect 4 0 3 1;
#X connect 5 0 2 0;
#X connect 7 0 3 0;
#X connect 8 0 17 0;
#X connect 9 0 14 0;
#X connect 9 0 15 1;
#X connect 9 0 17 1;
#X connect 10 0 15 0;
#X connect 11 0 4 0;
#X connect 12 0 13 0;
#X connect 13 0 5 0;
#X connect 13 0 9 0;
#X connect 15 0 16 0;
#X connect 16 0 9 0;
#X connect 17 0 18 0;
#X connect 18 0 19 0;
#X connect 19 0 13 0;
#X connect 19 1 9 0;
#X connect 20 0 9 0;
#X connect 21 0 22 1;
#X connect 22 0 23 0;
#X connect 23 0 15 0;
#X connect 26 0 22 0;
#X restore 51 217 pd clock;
#X obj 51 55 tgl 20 0 empty empty start/stop 20 8 0 8 -232576 -258699
-1 0 1;
#X floatatom 60 83 0 0 0 0 - - -;
#X text 90 83 tempo;
#X obj 70 107 bng 20 250 50 0 empty empty reset 30 10 0 8 -232576 -258699
-1;
#X floatatom 51 242 0 0 0 0 - - -;
#X obj 80 146 bng 20 250 50 0 empty empty empty 30 10 0 8 -232576 -258699
-1;
#X obj 105 146 bng 20 250 50 0 empty empty empty 30 10 0 8 -232576
-258699 -1;
#X text 81 124 << >>;
#X floatatom 113 173 0 0 0 0 - - -;
#X text 146 174 setbar;
#X text 134 145 skipbar;
#X obj 33 13 loadbang;
#X obj 123 197 tgl 20 0 empty empty empty 20 8 0 8 -232576 -258699
-1 0 1;
#X text 145 200 link bar;
#X floatatom 247 129 0 0 0 0 - - -;
#X floatatom 695 150 0 0 0 0 - - -;
#X text 56 35 CLOCK;
#X floatatom 754 630 0 0 0 0 - - -;
#N canvas 159 26 497 268 output 0;
#X obj 338 160 t b;
#X obj 338 110 f;
#X obj 338 60 inlet;
#X text 344 29 mute;
#X obj 338 185 f;
#X msg 425 178 0;
#X msg 338 85 bang;
#X obj 338 135 moses 1;
#X obj 425 153 t b f;
#X obj 397 117 moses 1;
#X obj 83 148 dbtorms;
#X obj 397 92 r master-lvl;
#X obj 83 42 r master-lvl;
#X obj 338 210 s master-lvl;
#X obj 22 181 inlet~;
#X obj 199 41 inlet;
#X text 199 18 level;
#X obj 199 100 s master-lvl;
#X msg 96 65 set \$1;
#X obj 96 89 outlet;
#X msg 214 64 \; pd dsp 1;
#X obj 83 194 line~;
#X obj 22 212 *~;
#X obj 22 241 dac~;
#X obj 83 171 pack 0 50;
#X text 20 158 audio;
#X text 93 110 show level;
#X connect 0 0 4 0;
#X connect 1 0 7 0;
#X connect 2 0 6 0;
#X connect 4 0 13 0;
#X connect 5 0 13 0;
#X connect 6 0 1 0;
#X connect 7 0 0 0;
#X connect 7 1 8 0;
#X connect 8 0 5 0;
#X connect 9 1 4 1;
#X connect 10 0 24 0;
#X connect 11 0 1 1;
#X connect 11 0 9 0;
#X connect 12 0 10 0;
#X connect 12 0 18 0;
#X connect 14 0 22 0;
#X connect 15 0 17 0;
#X connect 15 0 20 0;
#X connect 18 0 19 0;
#X connect 21 0 22 1;
#X connect 22 0 23 0;
#X connect 22 0 23 1;
#X connect 24 0 21 0;
#X restore 706 655 pd output;
#X msg 812 655 MUTE;
#X text 820 633 <-- output amplitude;
#X obj 792 604 loadbang;
#X obj 493 411 instruments -------------;
#X msg 33 338 bang;
#X floatatom 238 279 0 0 0 0 - - -;
#X floatatom 270 279 0 0 0 0 - - -;
#X floatatom 302 279 0 0 0 0 - - -;
#X floatatom 334 279 0 0 0 0 - - -;
#X floatatom 366 279 0 0 0 0 - - -;
#X floatatom 398 279 0 0 0 0 - - -;
#X floatatom 430 279 0 0 0 0 - - -;
#X floatatom 463 279 0 0 0 0 - - -;
#X floatatom 495 279 0 0 0 0 - - -;
#X floatatom 527 279 0 0 0 0 - - -;
#X floatatom 559 279 0 0 0 0 - - -;
#X floatatom 591 279 0 0 0 0 - - -;
#X floatatom 623 279 0 0 0 0 - - -;
#X floatatom 655 279 0 0 0 0 - - -;
#X floatatom 687 279 0 0 0 0 - - -;
#X floatatom 719 279 0 0 0 0 - - -;
#X text 239 302 extended note info;
#X obj 17 391 s sampleinit;
#X obj 717 520 instruments2 -------;
#X msg 735 201 1;
#X msg 771 201 0;
#X obj 735 174 bng 20 250 50 0 empty empty empty 20 8 0 8 -232576 -258699
-1;
#X obj 303 162 sequencetable;
#X obj 723 84 s copybar;
#X obj 723 56 bng 20 250 50 0 empty empty empty 20 8 0 8 -232576 -258699
-1;
#X obj 723 111 bng 20 250 50 0 empty empty empty 20 8 0 8 -232576 -258699
-1;
#X text 608 153 INSTRUMENT;
#X obj 248 254 sequence a--------------------------------------------------
;
#X msg 787 631 94;
#X text 757 173 CLEAR PATTERN;
#X text 703 410 <--sampleplayers are in here;
#X text 745 54 COPY PATTERN;
#X text 747 109 PASTE PATTERN;
#X text 728 228 <-- set pattern with these toggles;
#X text 238 62 INSTRUMENTS;
#X connect 1 0 73 0;
#X connect 2 0 73 1;
#X connect 3 0 73 2;
#X connect 4 0 73 3;
#X connect 5 0 73 4;
#X connect 6 0 73 5;
#X connect 7 0 73 6;
#X connect 8 0 73 7;
#X connect 9 0 73 8;
#X connect 10 0 73 9;
#X connect 11 0 73 10;
#X connect 12 0 73 11;
#X connect 13 0 73 12;
#X connect 14 0 73 13;
#X connect 15 0 73 14;
#X connect 16 0 73 15;
#X connect 17 0 0 0;
#X connect 19 0 36 0;
#X connect 21 0 26 0;
#X connect 22 0 21 0;
#X connect 23 0 21 1;
#X connect 25 0 21 2;
#X connect 26 0 20 0;
#X connect 27 0 21 3;
#X connect 28 0 21 4;
#X connect 30 0 21 5;
#X connect 33 0 45 0;
#X connect 33 0 25 0;
#X connect 34 0 21 6;
#X connect 36 0 37 0;
#X connect 37 0 73 16;
#X connect 39 0 40 1;
#X connect 40 0 39 0;
#X connect 41 0 40 2;
#X connect 43 0 74 0;
#X connect 44 0 40 0;
#X connect 44 1 40 0;
#X connect 44 2 40 0;
#X connect 44 3 40 0;
#X connect 44 4 40 0;
#X connect 45 0 18 0;
#X connect 45 0 63 0;
#X connect 46 0 1 0;
#X connect 47 0 73 1;
#X connect 48 0 73 2;
#X connect 49 0 73 3;
#X connect 50 0 73 4;
#X connect 51 0 73 5;
#X connect 52 0 73 6;
#X connect 53 0 73 7;
#X connect 54 0 73 8;
#X connect 55 0 73 9;
#X connect 56 0 73 10;
#X connect 57 0 73 11;
#X connect 58 0 73 12;
#X connect 59 0 73 13;
#X connect 60 0 73 14;
#X connect 61 0 73 15;
#X connect 64 0 40 0;
#X connect 64 1 40 0;
#X connect 64 2 40 0;
#X connect 64 3 40 0;
#X connect 64 4 40 0;
#X connect 65 0 1 0;
#X connect 65 0 2 0;
#X connect 65 0 3 0;
#X connect 65 0 4 0;
#X connect 65 0 5 0;
#X connect 65 0 6 0;
#X connect 65 0 7 0;
#X connect 65 0 8 0;
#X connect 65 0 9 0;
#X connect 65 0 10 0;
#X connect 65 0 11 0;
#X connect 65 0 12 0;
#X connect 65 0 13 0;
#X connect 65 0 14 0;
#X connect 65 0 15 0;
#X connect 65 0 16 0;
#X connect 65 0 66 0;
#X connect 66 0 1 0;
#X connect 66 0 2 0;
#X connect 66 0 3 0;
#X connect 66 0 4 0;
#X connect 66 0 5 0;
#X connect 66 0 6 0;
#X connect 66 0 7 0;
#X connect 66 0 8 0;
#X connect 66 0 9 0;
#X connect 66 0 10 0;
#X connect 66 0 11 0;
#X connect 66 0 12 0;
#X connect 66 0 13 0;
#X connect 66 0 14 0;
#X connect 66 0 15 0;
#X connect 66 0 16 0;
#X connect 67 0 65 0;
#X connect 70 0 69 0;
#X connect 71 0 73 17;
#X connect 73 0 1 0;
#X connect 73 0 46 0;
#X connect 73 1 2 0;
#X connect 73 1 47 0;
#X connect 73 2 3 0;
#X connect 73 2 48 0;
#X connect 73 3 4 0;
#X connect 73 3 49 0;
#X connect 73 4 5 0;
#X connect 73 4 50 0;
#X connect 73 5 6 0;
#X connect 73 5 51 0;
#X connect 73 6 7 0;
#X connect 73 6 52 0;
#X connect 73 7 8 0;
#X connect 73 7 53 0;
#X connect 73 8 9 0;
#X connect 73 8 54 0;
#X connect 73 9 10 0;
#X connect 73 9 55 0;
#X connect 73 10 11 0;
#X connect 73 10 56 0;
#X connect 73 11 12 0;
#X connect 73 11 57 0;
#X connect 73 12 13 0;
#X connect 73 12 58 0;
#X connect 73 13 14 0;
#X connect 73 13 59 0;
#X connect 73 14 15 0;
#X connect 73 14 60 0;
#X connect 73 15 16 0;
#X connect 73 15 61 0;
#X connect 74 0 39 0;
