#N canvas 251 95 769 564 10;
#N canvas 0 22 450 300 (subpatch) 0;
#X array sound1 243249 float 2;
#X coords 0 1 243249 -1 200 140 1;
#X restore 280 12 graph;
#X obj 172 20 bng 30 250 50 0 empty empty load_file 0 -6 0 8 -204800
-1 -1;
#N canvas 0 22 462 312 fileloader 0;
#X obj 94 107 soundfiler;
#X obj 94 38 openpanel;
#X obj 94 61 pack symbol;
#X msg 94 84 read -resize \$1 sound1;
#X obj 122 174 samplerate~;
#X obj 122 148 t b;
#X obj 94 207 /;
#X obj 94 232 * 1000;
#X obj 94 14 inlet;
#X obj 94 257 outlet;
#X text 202 147 loads a file and outputs;
#X text 204 159 the length in ms;
#X connect 0 0 6 0;
#X connect 0 0 5 0;
#X connect 1 0 2 0;
#X connect 2 0 3 0;
#X connect 3 0 0 0;
#X connect 4 0 6 1;
#X connect 5 0 4 0;
#X connect 6 0 7 0;
#X connect 7 0 9 0;
#X connect 8 0 1 0;
#X restore 172 56 pd fileloader;
#N canvas 65 86 469 308 sampler 0;
#X obj 30 125 tabplay~ sound1;
#X obj 81 189 outlet~;
#X msg 34 68 1;
#X msg 68 55 0;
#X obj 30 96 metro 1000;
#X msg 171 86 1000;
#X obj 34 30 loadbang;
#X obj 171 124 bng 15 250 50 0 empty empty empty 0 -6 0 8 -262144 -1
-1;
#X obj 171 30 inlet;
#X obj 258 44 inlet;
#X text 257 80 sample_length;
#X obj 231 118 t b;
#X obj 81 156 *~;
#X connect 0 0 12 0;
#X connect 2 0 4 0;
#X connect 3 0 4 0;
#X connect 4 0 0 0;
#X connect 4 0 7 0;
#X connect 5 0 4 1;
#X connect 6 0 2 0;
#X connect 8 0 4 0;
#X connect 8 0 12 1;
#X connect 9 0 4 1;
#X connect 9 0 11 0;
#X connect 11 0 2 0;
#X connect 12 0 1 0;
#X restore 107 78 pd sampler;
#X obj 151 503 dac~;
#X obj 325 294 tgl 30 0 empty empty empty 0 -6 0 8 -4032 -1 -1 0 1
;
#X floatatom 296 184 5 0 0 2 freq - -;
#X floatatom 526 285 5 0 0 0 - - -;
#N canvas 8 202 474 363 lfo 0;
#X obj 148 24 loadbang;
#X msg 151 51 1;
#X obj 269 169 delay 200;
#X obj 153 81 metro 200;
#X obj 304 37 inlet;
#X obj 311 69 * 0.5;
#X obj 289 191 pack 0 0;
#X obj 139 137 pack 0 0;
#X obj 211 252 line~;
#X obj 208 298 outlet~;
#X text 304 234 ramp down;
#X text 70 140 ranmp up;
#X obj 214 136 t b;
#X text 366 43 cycle time;
#X text 369 56 in ms;
#X obj 123 111 bng 15 250 50 0 empty empty empty 0 -6 0 8 -262144 -1
-1;
#X obj 292 261 line;
#X obj 286 298 outlet;
#X obj 141 224 bng 15 250 50 0 empty empty empty 0 -6 0 8 -262144 -1
-1;
#X obj 357 270 bng 15 250 50 0 empty empty empty 0 -6 0 8 -262144 -1
-1;
#X msg 135 166 1 \, -1 \$2;
#X msg 303 212 -1 \, 1 \$2;
#X connect 0 0 1 0;
#X connect 1 0 3 0;
#X connect 2 0 6 0;
#X connect 3 0 7 0;
#X connect 3 0 15 0;
#X connect 4 0 3 1;
#X connect 4 0 5 0;
#X connect 5 0 2 1;
#X connect 5 0 6 1;
#X connect 5 0 7 1;
#X connect 6 0 21 0;
#X connect 7 0 20 0;
#X connect 7 0 12 0;
#X connect 8 0 9 0;
#X connect 12 0 2 0;
#X connect 16 0 17 0;
#X connect 20 0 8 0;
#X connect 20 0 16 0;
#X connect 20 0 18 0;
#X connect 21 0 8 0;
#X connect 21 0 16 0;
#X connect 21 0 19 0;
#X restore 489 260 pd lfo;
#X floatatom 497 225 5 0 0 2 lfo_time - -;
#X obj 107 20 tgl 30 0 empty empty play_sample 0 -6 0 8 -4034 -1 -1
0 1;
#X floatatom 209 344 5 0 0 2 delay_time - -;
#N canvas 64 97 649 473 delay 0;
#X obj 103 196 +~;
#X obj 52 93 *~;
#X obj 259 219 +~;
#X obj 407 243 +~;
#X obj 366 296 *~ 0.25;
#X obj 366 325 outlet~;
#X obj 20 49 inlet~;
#X obj 68 49 inlet;
#X obj 336 38 inlet;
#X obj 336 82 * 2;
#X obj 365 82 * 4;
#X obj 423 85 * 8;
#X obj 119 141 delwrite~ del4 1000;
#X obj 277 139 delwrite~ del5 1000;
#X obj 420 139 delwrite~ del6 1000;
#X obj 119 165 delread~ del4 10;
#X obj 275 163 delread~ del5 20;
#X obj 423 163 delread~ del6 30;
#X obj 208 49 inlet;
#X obj 119 89 *~;
#X obj 407 272 s~ feedback;
#X obj 119 50 r~ feedback;
#X text 8 16 audio in;
#X text 69 23 gain;
#X text 201 25 feedback;
#X text 329 18 delay time;
#X obj 208 72 * 0.01;
#X connect 0 0 2 0;
#X connect 1 0 0 0;
#X connect 1 0 12 0;
#X connect 1 0 13 0;
#X connect 1 0 14 0;
#X connect 2 0 3 0;
#X connect 3 0 4 0;
#X connect 3 0 20 0;
#X connect 4 0 5 0;
#X connect 6 0 1 0;
#X connect 7 0 1 1;
#X connect 8 0 9 0;
#X connect 8 0 10 0;
#X connect 8 0 11 0;
#X connect 9 0 15 0;
#X connect 10 0 16 0;
#X connect 11 0 17 0;
#X connect 15 0 0 1;
#X connect 16 0 2 1;
#X connect 17 0 3 1;
#X connect 18 0 26 0;
#X connect 19 0 12 0;
#X connect 19 0 13 0;
#X connect 19 0 14 0;
#X connect 21 0 19 0;
#X connect 26 0 19 1;
#X restore 124 357 pd delay;
#X obj 141 278 tgl 30 0 empty empty empty 0 -6 0 8 -4032 -1 -1 0 1
;
#X floatatom 158 327 5 0 35 2 feedback - -;
#N canvas 0 22 602 378 phaser 0;
#X obj 52 124 +~;
#X obj 21 40 *~;
#X obj 50 311 outlet~;
#X obj 10 8 inlet~;
#X obj 73 12 inlet;
#X obj 114 40 delwrite~ del1 1000;
#X obj 231 11 inlet;
#X obj 52 218 *~ 0.5;
#X obj 109 68 delread~ del1 10;
#X connect 0 0 7 0;
#X connect 1 0 0 0;
#X connect 1 0 5 0;
#X connect 3 0 1 0;
#X connect 4 0 1 1;
#X connect 6 0 8 0;
#X connect 7 0 2 0;
#X connect 8 0 0 1;
#X coords 0 0 0.00171821 0.0027933 100 75 0;
#X restore 296 349 pd phaser;
#X obj 296 507 tabwrite~ readout;
#N canvas 0 22 450 300 (subpatch) 0;
#X array readout 5000 float 0;
#X coords 0 1 4999 -1 200 140 1;
#X restore 544 11 graph;
#X obj 303 482 bng 15 250 50 0 empty empty empty 0 -6 0 8 -262144 -1
-1;
#X floatatom 360 313 5 0 0 2 delay - -;
#X obj 309 258 tabwrite~ readout;
#X obj 318 234 bng 15 250 50 0 empty empty empty 0 -6 0 8 -262144 -1
-1;
#X text 354 235 clean;
#X text 337 483 phased;
#N canvas 0 22 427 340 flanger 0;
#X obj 21 184 +~;
#X obj 21 40 *~;
#X obj 21 289 outlet~;
#X obj 21 7 inlet~;
#X obj 115 8 inlet;
#X obj 248 14 inlet~;
#X obj 37 72 delwrite~ del10 1000;
#X obj 37 157 vd~ del10 10;
#X obj 248 77 *~ 4;
#X obj 248 43 +~ 1;
#X obj 311 15 inlet;
#X obj 21 218 *~ 0.25;
#X connect 0 0 11 0;
#X connect 1 0 0 0;
#X connect 1 0 6 0;
#X connect 3 0 1 0;
#X connect 4 0 1 1;
#X connect 5 0 9 0;
#X connect 7 0 0 1;
#X connect 8 0 7 0;
#X connect 9 0 8 0;
#X connect 10 0 8 1;
#X connect 11 0 2 0;
#X restore 446 348 pd flanger;
#X obj 467 289 tgl 30 0 empty empty empty 0 -6 0 8 -4032 -1 -1 0 1
;
#X floatatom 511 310 5 0 0 0 - - -;
#X obj 296 208 phasor~ 50;
#N canvas 235 101 213 226 echo 0;
#X obj 21 129 +~;
#X obj 21 40 *~;
#X obj 21 193 outlet~;
#X obj 21 7 inlet~;
#X obj 73 7 inlet;
#X obj 124 6 inlet;
#X obj 21 162 *~ 0.5;
#X obj 37 104 delread~ del20 10;
#X obj 37 69 delwrite~ del20 2000;
#X connect 0 0 6 0;
#X connect 1 0 0 0;
#X connect 1 0 8 0;
#X connect 3 0 1 0;
#X connect 4 0 1 1;
#X connect 5 0 7 0;
#X connect 6 0 2 0;
#X connect 7 0 0 1;
#X restore 12 352 pd echo;
#X floatatom 56 331 5 0 0 2 delay_time - -;
#X obj 34 277 tgl 30 0 empty empty empty 0 -6 0 8 -4032 -1 -1 0 1;
#X obj 16 160 soundfiler;
#X floatatom 16 181 0 0 0 0 - - -;
#X msg 16 104 read;
#X obj 12 207 bng 15 250 50 0 empty empty empty 0 -6 0 8 -262144 -1
-1;
#X obj 12 230 tabplay~ sound1;
#X msg 16 126 read -resize rhythm_01.aif sound1 \; pd dsp 1 \;;
#X obj 16 75 loadbang;
#X connect 1 0 2 0;
#X connect 2 0 3 1;
#X connect 5 0 15 1;
#X connect 6 0 27 0;
#X connect 8 0 24 2;
#X connect 8 1 7 0;
#X connect 9 0 8 0;
#X connect 10 0 3 0;
#X connect 11 0 12 3;
#X connect 12 0 4 0;
#X connect 12 0 4 1;
#X connect 13 0 12 1;
#X connect 14 0 12 2;
#X connect 15 0 4 1;
#X connect 15 0 4 0;
#X connect 15 0 16 0;
#X connect 18 0 16 0;
#X connect 19 0 15 2;
#X connect 21 0 20 0;
#X connect 24 0 4 0;
#X connect 24 0 4 1;
#X connect 25 0 24 1;
#X connect 26 0 24 3;
#X connect 27 0 20 0;
#X connect 27 0 15 0;
#X connect 28 0 4 0;
#X connect 28 0 4 1;
#X connect 29 0 28 2;
#X connect 30 0 28 1;
#X connect 31 0 32 0;
#X connect 33 0 31 0;
#X connect 34 0 35 0;
#X connect 35 0 28 0;
#X connect 35 0 12 0;
#X connect 36 0 31 0;
#X connect 37 0 36 0;
